<?xml version="1.0" encoding="utf-8"?>
<!-- Generator: Adobe Illustrator 19.1.0, SVG Export Plug-In . SVG Version: 6.00 Build 0)  -->
<svg version="1.1" id="Layer_1" xmlns="http://www.w3.org/2000/svg" xmlns:xlink="http://www.w3.org/1999/xlink" x="0px" y="0px"
	 viewBox="0 0 170 190" style="enable-background:new 0 0 170 190;" xml:space="preserve">
<g fill="#ea0b8c">
	<path d="M0,2.1h25.8v69.1c0,10.9,5,17.4,9,20.2c-4.2,3.7-17,7-26.6-0.9
		C2.6,85.8,0,78.2,0,71V2.1z M161.3,59.5v-7.3h7.9V26.8h-8.6C157.2,11.5,143.6,0,127.3,0c-18.8,0-34.1,15.2-34.1,34v59.5
		c5.4,0.8,11.7-0.1,17.2-4.6c5.6-4.7,8.2-12.3,8.2-19.5v-2.2h12.9V41.7h-12.9V34h0c0-4.8,3.9-8.6,8.6-8.6c4.8,0,8.7,3.9,8.7,8.6v25.5
		c0,18.8,15.3,34,34.1,34V68.1C165.2,68.1,161.3,64.3,161.3,59.5z M63.6,26.8v37.4c0,2.1-1.8,3.8-3.9,3.8c-2.2,0-3.9-1.7-3.9-3.8
		V26.8H30.1v44c0,7.9,2.7,17.9,14.9,21.2c12.3,3.3,19.4-3.5,19.4-3.5c-0.6,4.4-4.8,7.7-11.6,8.4c-5.1,0.5-11.7-1.2-14.9-2.6v23.3
		c8.3,2.4,17.1,3.2,25.7,1.6c15.6-3,25.5-16.1,25.5-33.4v-59H63.6z"/>
	<path d="M0,96.7h25.8v69.1c0,10.9,5,17.4,9,20.2c-4.2,3.7-17,7-26.6-0.9C2.6,180.5,0,172.8,0,165.6V96.7z"/>
	<path d="M135.9,96.7c0,0,0,29,0,33.8V156c0,18.8,15.3,34,34.1,34
		v-25.3c-4.8,0-8.7-3.9-8.7-8.6v-7.3h7.9v-25.5h-8.6l0-26.6"/>
	<path d="M62.2,122c-18.8,0-34.1,15.2-34.1,34s15.3,34,34.1,34s34.1-15.2,34.1-34S81,122,62.2,122z M62.2,164.7
		c-4.8,0-8.7-3.9-8.7-8.7s3.9-8.7,8.7-8.7s8.7,3.9,8.7,8.7S67,164.7,62.2,164.7z"/>
	<path d="M112.3,122c-18.8,0-34.1,15.2-34.1,34s15.3,34,34.1,34s34.1-15.2,34.1-34S131.1,122,112.3,122z M112.3,164.7
		c-4.8,0-8.7-3.9-8.7-8.7s3.9-8.7,8.7-8.7c4.8,0,8.7,3.9,8.7,8.7S117.1,164.7,112.3,164.7z"/>
</g>
</svg>
